<svg xmlns="http://www.w3.org/2000/svg" width="766" height="283" viewBox="0 0 766 283">
<title>MIA Retail Solutions - redrawn vector logo</title>
<g id="symbol">
<rect x="30" y="34" width="69" height="50" fill="#071E34"/>
<rect x="30" y="92" width="69" height="50" fill="#071E34"/>
<rect x="30" y="153" width="69" height="42" fill="#071E34"/>
<rect x="107" y="34" width="81" height="50" fill="#071E34"/>
<path fill="#BFE7E0" d="M 107 92 L 188 105 L 188 146 L 107 146 Z"/>
<rect x="107" y="153" width="81" height="42" fill="#008C7C"/>
<path fill="#008C7C" d="M 195 34 L 252 63 L 252 108 L 195 84 Z"/>
<path fill="#008C7C" d="M 195 92 L 252 116 L 252 145 L 195 144 Z"/>
<path fill="#008C7C" d="M 195 153 L 252 144 L 252 183 L 195 195 Z"/>
</g>
<g id="wordmark" fill-rule="nonzero">
<path fill="#071E34" d="M 290.00 195.00 L 324.59 195.00 L 324.59 131.78 C 324.59 122.19 323.90 104.66 323.52 87.88 C 328.32 104.94 333.21 122.38 336.25 131.78 L 357.61 195.00 L 386.14 195.00 L 407.09 131.78 C 410.22 122.00 415.24 103.66 420.13 85.94 C 419.76 103.28 418.97 121.81 418.97 131.78 L 418.97 195.00 L 453.56 195.00 L 453.56 49.00 L 401.32 49.00 L 382.69 106.32 C 379.96 115.63 375.54 131.69 371.94 145.52 C 368.30 131.69 363.78 115.63 360.96 106.32 L 342.15 49.00 L 290.00 49.00 L 290.00 195.00 Z"/>
<path fill="#071E34" d="M 538.38 49.00 L 503.10 49.00 L 503.10 195.00 L 538.38 195.00 L 538.38 49.00 Z"/>
<path fill="#071E34" d="M 579.02 195.00 L 617.34 195.00 L 626.25 166.87 L 678.08 166.87 L 686.70 195.00 L 726.09 195.00 L 675.63 49.00 L 629.19 49.00 L 579.02 195.00 Z M 635.06 139.34 L 637.72 130.81 C 642.80 114.54 647.51 98.58 652.49 80.64 C 657.41 98.58 662.12 114.54 666.92 130.81 L 669.55 139.34 L 635.06 139.34 Z"/>
<path fill="#008C7C" d="M 37.33 235.91 Q 39.10 235.91 40.45 235.48 Q 41.81 235.05 42.72 234.26 Q 43.63 233.48 44.09 232.39 Q 44.56 231.29 44.56 229.97 Q 44.56 227.28 42.79 225.92 Q 41.03 224.55 37.51 224.55 L 33.05 224.55 L 33.05 235.91 L 37.33 235.91 Z M 51.23 251.43 L 47.62 251.43 Q 46.51 251.43 45.98 250.57 L 38.17 239.81 Q 37.82 239.32 37.41 239.09 Q 37.00 238.87 36.14 238.87 L 33.05 238.87 L 33.05 251.43 L 29.00 251.43 L 29.00 221.33 L 37.51 221.33 Q 40.36 221.33 42.43 221.91 Q 44.51 222.49 45.87 223.59 Q 47.22 224.68 47.87 226.22 Q 48.53 227.77 48.53 229.68 Q 48.53 231.27 48.02 232.66 Q 47.52 234.04 46.56 235.14 Q 45.61 236.24 44.23 237.03 Q 42.86 237.80 41.11 238.20 Q 41.89 238.64 42.46 239.48 L 51.23 251.43 Z"/>
<path fill="#008C7C" d="M 94.64 248.11 L 94.62 251.43 L 76.08 251.43 L 76.08 221.33 L 94.62 221.33 L 94.62 224.66 L 80.15 224.66 L 80.15 234.65 L 91.87 234.65 L 91.87 237.85 L 80.15 237.85 L 80.15 248.11 L 94.64 248.11 Z"/>
<path fill="#008C7C" d="M 139.83 224.76 L 130.09 224.76 L 130.09 251.43 L 126.03 251.43 L 126.03 224.76 L 116.27 224.76 L 116.27 221.33 L 139.83 221.33 L 139.83 224.76 Z"/>
<path fill="#008C7C" d="M 180.65 240.26 L 175.93 228.02 Q 175.72 227.47 175.48 226.75 Q 175.25 226.02 175.04 225.20 Q 174.60 226.90 174.14 228.04 L 169.42 240.26 L 180.65 240.26 Z M 189.14 251.43 L 185.99 251.43 Q 185.44 251.43 185.10 251.16 Q 184.77 250.89 184.60 250.47 L 181.79 243.20 L 168.28 243.20 L 165.47 250.47 Q 165.34 250.84 164.98 251.14 Q 164.63 251.43 164.10 251.43 L 160.95 251.43 L 172.99 221.33 L 177.10 221.33 L 189.14 251.43 Z"/>
<path fill="#008C7C" d="M 218.05 251.43 L 213.98 251.43 L 213.98 221.33 L 218.05 221.33 L 218.05 251.43 Z"/>
<path fill="#008C7C" d="M 259.97 248.00 L 259.97 251.43 L 242.90 251.43 L 242.90 221.33 L 246.95 221.33 L 246.95 248.00 L 259.97 248.00 Z"/>
<path fill="#008C7C" d="M 350.60 226.04 Q 350.41 226.36 350.19 226.51 Q 349.97 226.67 349.66 226.67 Q 349.30 226.67 348.82 226.32 Q 348.34 225.95 347.61 225.53 Q 346.89 225.10 345.86 224.74 Q 344.85 224.38 343.40 224.38 Q 342.04 224.38 340.99 224.75 Q 339.96 225.11 339.25 225.74 Q 338.55 226.37 338.19 227.23 Q 337.84 228.08 337.84 229.07 Q 337.84 230.33 338.45 231.16 Q 339.07 231.99 340.09 232.58 Q 341.11 233.16 342.40 233.59 Q 343.69 234.02 345.04 234.49 Q 346.40 234.95 347.69 235.52 Q 348.99 236.10 350.00 236.99 Q 351.02 237.87 351.64 239.15 Q 352.26 240.43 352.26 242.30 Q 352.26 244.27 351.59 246.00 Q 350.92 247.74 349.62 249.02 Q 348.34 250.30 346.45 251.03 Q 344.58 251.77 342.18 251.77 Q 339.24 251.77 336.85 250.71 Q 334.45 249.65 332.75 247.84 L 333.93 245.90 Q 334.10 245.68 334.34 245.52 Q 334.58 245.36 334.87 245.36 Q 335.15 245.36 335.50 245.58 Q 335.84 245.80 336.28 246.14 Q 336.72 246.48 337.29 246.88 Q 337.86 247.27 338.58 247.61 Q 339.31 247.95 340.23 248.17 Q 341.15 248.39 342.31 248.39 Q 343.76 248.39 344.89 247.99 Q 346.03 247.58 346.82 246.86 Q 347.60 246.14 348.02 245.13 Q 348.44 244.12 348.44 242.89 Q 348.44 241.52 347.82 240.65 Q 347.20 239.78 346.19 239.19 Q 345.19 238.60 343.88 238.19 Q 342.58 237.78 341.24 237.35 Q 339.89 236.92 338.59 236.36 Q 337.29 235.79 336.28 234.89 Q 335.27 233.98 334.65 232.63 Q 334.03 231.27 334.03 229.28 Q 334.03 227.68 334.65 226.19 Q 335.27 224.69 336.46 223.54 Q 337.65 222.38 339.38 221.70 Q 341.11 221.00 343.36 221.00 Q 345.88 221.00 347.94 221.80 Q 350.02 222.59 351.59 224.11 L 350.60 226.04 Z"/>
<path fill="#008C7C" d="M 404.91 236.40 Q 404.91 239.78 403.84 242.60 Q 402.77 245.43 400.81 247.47 Q 398.86 249.50 396.12 250.62 Q 393.38 251.75 390.06 251.75 Q 386.74 251.75 384.01 250.62 Q 381.28 249.50 379.33 247.47 Q 377.38 245.43 376.31 242.60 Q 375.24 239.78 375.24 236.40 Q 375.24 233.02 376.31 230.19 Q 377.38 227.37 379.33 225.32 Q 381.28 223.27 384.01 222.14 Q 386.74 221.00 390.06 221.00 Q 393.38 221.00 396.12 222.14 Q 398.86 223.27 400.81 225.32 Q 402.77 227.37 403.84 230.19 Q 404.91 233.02 404.91 236.40 Z M 400.73 236.40 Q 400.73 233.62 399.97 231.41 Q 399.22 229.21 397.83 227.69 Q 396.45 226.16 394.47 225.35 Q 392.50 224.53 390.06 224.53 Q 387.65 224.53 385.67 225.35 Q 383.70 226.16 382.30 227.69 Q 380.91 229.21 380.15 231.41 Q 379.39 233.62 379.39 236.40 Q 379.39 239.17 380.15 241.36 Q 380.91 243.56 382.30 245.08 Q 383.70 246.60 385.67 247.41 Q 387.65 248.21 390.06 248.21 Q 392.50 248.21 394.47 247.41 Q 396.45 246.60 397.83 245.08 Q 399.22 243.56 399.97 241.36 Q 400.73 239.17 400.73 236.40 Z"/>
<path fill="#008C7C" d="M 446.82 248.00 L 446.82 251.43 L 429.75 251.43 L 429.75 221.33 L 433.80 221.33 L 433.80 248.00 L 446.82 248.00 Z"/>
<path fill="#008C7C" d="M 483.28 248.20 Q 485.15 248.20 486.62 247.57 Q 488.09 246.94 489.10 245.81 Q 490.12 244.67 490.66 243.10 Q 491.20 241.52 491.20 239.63 L 491.20 221.33 L 495.25 221.33 L 495.25 239.63 Q 495.25 242.23 494.41 244.46 Q 493.59 246.69 492.04 248.31 Q 490.50 249.94 488.28 250.87 Q 486.05 251.78 483.28 251.78 Q 480.51 251.78 478.28 250.87 Q 476.05 249.94 474.50 248.31 Q 472.95 246.69 472.11 244.46 Q 471.29 242.23 471.29 239.63 L 471.29 221.33 L 475.34 221.33 L 475.34 239.60 Q 475.34 241.49 475.87 243.07 Q 476.41 244.64 477.43 245.78 Q 478.45 246.92 479.92 247.56 Q 481.41 248.20 483.28 248.20 Z"/>
<path fill="#008C7C" d="M 540.44 224.76 L 530.70 224.76 L 530.70 251.43 L 526.64 251.43 L 526.64 224.76 L 516.88 224.76 L 516.88 221.33 L 540.44 221.33 L 540.44 224.76 Z"/>
<path fill="#008C7C" d="M 569.35 251.43 L 565.28 251.43 L 565.28 221.33 L 569.35 221.33 L 569.35 251.43 Z"/>
<path fill="#008C7C" d="M 621.99 236.40 Q 621.99 239.78 620.92 242.60 Q 619.85 245.43 617.90 247.47 Q 615.95 249.50 613.21 250.62 Q 610.47 251.75 607.15 251.75 Q 603.83 251.75 601.10 250.62 Q 598.37 249.50 596.41 247.47 Q 594.46 245.43 593.39 242.60 Q 592.32 239.78 592.32 236.40 Q 592.32 233.02 593.39 230.19 Q 594.46 227.37 596.41 225.32 Q 598.37 223.27 601.10 222.14 Q 603.83 221.00 607.15 221.00 Q 610.47 221.00 613.21 222.14 Q 615.95 223.27 617.90 225.32 Q 619.85 227.37 620.92 230.19 Q 621.99 233.02 621.99 236.40 Z M 617.82 236.40 Q 617.82 233.62 617.06 231.41 Q 616.30 229.21 614.92 227.69 Q 613.53 226.16 611.56 225.35 Q 609.58 224.53 607.15 224.53 Q 604.73 224.53 602.76 225.35 Q 600.78 226.16 599.39 227.69 Q 598.00 229.21 597.23 231.41 Q 596.48 233.62 596.48 236.40 Q 596.48 239.17 597.23 241.36 Q 598.00 243.56 599.39 245.08 Q 600.78 246.60 602.76 247.41 Q 604.73 248.21 607.15 248.21 Q 609.58 248.21 611.56 247.41 Q 613.53 246.60 614.92 245.08 Q 616.30 243.56 617.06 241.36 Q 617.82 239.17 617.82 236.40 Z"/>
<path fill="#008C7C" d="M 671.22 221.33 L 671.22 251.43 L 669.18 251.43 Q 668.70 251.43 668.37 251.27 Q 668.05 251.10 667.73 250.70 L 650.32 228.02 Q 650.36 228.54 650.38 229.05 Q 650.41 229.55 650.41 229.99 L 650.41 251.43 L 646.84 251.43 L 646.84 221.33 L 648.94 221.33 Q 649.21 221.33 649.40 221.37 Q 649.59 221.40 649.73 221.47 Q 649.88 221.54 650.03 221.68 Q 650.17 221.82 650.34 222.03 L 667.75 244.69 Q 667.71 244.15 667.68 243.63 Q 667.65 243.12 667.65 242.65 L 667.65 221.33 L 671.22 221.33 Z"/>
<path fill="#008C7C" d="M 711.45 226.04 Q 711.26 226.36 711.04 226.51 Q 710.82 226.67 710.51 226.67 Q 710.15 226.67 709.67 226.32 Q 709.19 225.95 708.46 225.53 Q 707.74 225.10 706.72 224.74 Q 705.70 224.38 704.25 224.38 Q 702.89 224.38 701.85 224.75 Q 700.81 225.11 700.10 225.74 Q 699.40 226.37 699.04 227.23 Q 698.69 228.08 698.69 229.07 Q 698.69 230.33 699.31 231.16 Q 699.92 231.99 700.94 232.58 Q 701.96 233.16 703.25 233.59 Q 704.54 234.02 705.90 234.49 Q 707.25 234.95 708.55 235.52 Q 709.84 236.10 710.86 236.99 Q 711.87 237.87 712.49 239.15 Q 713.11 240.43 713.11 242.30 Q 713.11 244.27 712.44 246.00 Q 711.77 247.74 710.48 249.02 Q 709.19 250.30 707.31 251.03 Q 705.43 251.77 703.03 251.77 Q 700.09 251.77 697.70 250.71 Q 695.30 249.65 693.60 247.84 L 694.78 245.90 Q 694.95 245.68 695.19 245.52 Q 695.43 245.36 695.72 245.36 Q 696.00 245.36 696.35 245.58 Q 696.69 245.80 697.13 246.14 Q 697.57 246.48 698.14 246.88 Q 698.71 247.27 699.43 247.61 Q 700.16 247.95 701.08 248.17 Q 702.00 248.39 703.16 248.39 Q 704.61 248.39 705.74 247.99 Q 706.88 247.58 707.67 246.86 Q 708.45 246.14 708.87 245.13 Q 709.29 244.12 709.29 242.89 Q 709.29 241.52 708.67 240.65 Q 708.05 239.78 707.04 239.19 Q 706.04 238.60 704.73 238.19 Q 703.43 237.78 702.09 237.35 Q 700.74 236.92 699.44 236.36 Q 698.14 235.79 697.13 234.89 Q 696.12 233.98 695.50 232.63 Q 694.88 231.27 694.88 229.28 Q 694.88 227.68 695.50 226.19 Q 696.12 224.69 697.31 223.54 Q 698.50 222.38 700.23 221.70 Q 701.96 221.00 704.21 221.00 Q 706.73 221.00 708.80 221.80 Q 710.87 222.59 712.44 224.11 L 711.45 226.04 Z"/>
</g>
</svg>